<svg width="32" height="32" viewBox="0 0 32 32" fill="none" xmlns="http://www.w3.org/2000/svg">
<circle cx="16" cy="16" r="16" fill="#2F9A41"/>
<path d="M22.6986 10.9904C22.5242 10.7522 22.3517 10.5141 22.1999 10.2742L12.8782 15.6287L8.37854 13.0489C8.27527 13.3273 8.21214 13.6189 8.19105 13.9151L12.9213 16.6543L22.6986 10.9904Z" fill="white"/>
<path d="M12.8782 17.6442L8.04489 14.8694C8.00912 15.0401 7.99464 15.2145 8.00177 15.3888C8.00177 17.5102 8.84452 19.5448 10.3446 21.0449C11.8447 22.545 13.8793 23.3878 16.0008 23.3878C18.1223 23.3878 20.1568 22.545 21.6569 21.0449C23.1571 19.5448 23.9998 17.5102 23.9998 15.3888C24.0088 14.123 23.7116 12.8739 23.1336 11.7478L12.8782 17.6442Z" fill="white"/>
<path d="M21.5494 9.603C21.3216 9.38798 21.0825 9.18521 20.8332 8.99555L12.8782 13.6133L9.0423 11.4235C8.91293 11.6616 8.78169 11.9222 8.62983 12.2034L12.8351 14.6313L21.5494 9.603Z" fill="white"/>
<path d="M20.0533 8.47621C19.7522 8.29597 19.4389 8.13685 19.1158 8L12.8782 11.5922L10.0828 10.0155C9.89535 10.2029 9.70786 10.4485 9.52038 10.6867L12.8576 12.5952L20.0533 8.47621Z" fill="white"/>
</svg>
