<svg width="32" height="32" viewBox="0 0 32 32" fill="none" xmlns="http://www.w3.org/2000/svg">
<circle cx="16" cy="16" r="16" fill="#FFF200"/>
<path fill-rule="evenodd" clip-rule="evenodd" d="M8.31851 21.1106L10.5591 23.3905L15.8087 18.074L21.234 23.5L23.5074 21.2529L18.1366 15.8926L19.169 14.8951V12.7685L19.8171 12.2205V13.8866L20.6518 14.5662L23.1446 12.0779L23.9462 12.6917C24.4187 10.9488 21.6839 6.99149 19.4216 9.18388L16.7856 11.7927L17.3239 12.4396L15.984 13.744L14.6882 12.4723L15.3691 11.8581L12.4808 9.07397C10.3065 7.28696 8.07696 10.0061 8 12.6586L8.79054 12.0011L11.2174 14.6103L12.0849 13.887V12.2863L12.6229 12.6917V14.7856L13.6771 15.8379L8.31851 21.1106Z" fill="#1F232B"/>
</svg>
