<svg width="32" height="32" viewBox="0 0 32 32" fill="none" xmlns="http://www.w3.org/2000/svg">
<circle cx="16" cy="16" r="16" fill="#EE2A23"/>
<path d="M16.232 7.5C17.341 7.5 17.6895 8.32978 17.9818 9.15825C18.1046 9.51006 20.9865 17.7428 21.0732 17.9899C21.0962 18.0588 21.0807 18.172 20.979 18.213C20.8768 18.2533 19.3795 18.8606 19.2965 18.8932C19.2136 18.9263 19.1208 18.8782 19.0908 18.7917C19.0597 18.7065 18.4382 16.9117 18.3683 16.7114H14.0969C14.0296 16.9117 13.4006 18.7104 13.3726 18.7917C13.3439 18.8743 13.2548 18.9302 13.1662 18.8932C13.0777 18.8567 11.5748 18.2494 11.485 18.213C11.399 18.1778 11.3597 18.0757 11.3896 17.9899C11.4956 17.6817 14.3338 9.58094 14.4785 9.15825C14.7602 8.34213 15.1205 7.5 16.232 7.5ZM11.1615 22.2311C11.0717 22.2311 11 22.3092 11 22.4041V24.3283C11 24.4233 11.0717 24.5 11.1615 24.5H21.2982C21.3898 24.5 21.4615 24.4233 21.4615 24.3283V22.4041C21.4615 22.3092 21.3898 22.2311 21.2982 22.2311H11.1615ZM16.222 10.1883L14.7783 14.7111H17.6895L16.2407 10.1883H16.222Z" fill="white"/>
</svg>
