<svg width="32" height="32" viewBox="0 0 32 32" fill="none" xmlns="http://www.w3.org/2000/svg">
<circle cx="16" cy="16" r="16" fill="#02BAE8"/>
<path d="M15.9994 7C11.0292 7 7 10.9818 7 15.8927C7 20.8039 11.0292 24.7877 15.9994 24.7877C20.9687 24.7877 25 20.8039 25 15.8927C25 10.9818 20.9687 7 15.9994 7ZM14.7226 19.6764L14.0592 21.6204C11.566 20.7894 9.89107 18.472 9.89107 15.8537C9.89107 13.2323 11.5692 10.9141 14.0667 10.0854L14.7276 12.0305C13.0764 12.5783 11.9672 14.1147 11.9672 15.8537C11.9672 17.5908 13.0746 19.127 14.7226 19.6764ZM17.8182 21.6596L17.1965 19.7021C18.8929 19.1759 20.0328 17.6293 20.0328 15.8537C20.0328 14.1003 18.9111 12.5599 17.2415 12.0207L17.8867 10.0704C20.4121 10.8861 22.1089 13.2103 22.1089 15.8537C22.1089 18.5305 20.3845 20.8638 17.8182 21.6596Z" fill="white"/>
</svg>
