<svg width="72" height="72" viewBox="0 0 72 72" fill="none" xmlns="http://www.w3.org/2000/svg">
<g clip-path="url(#clip0)">
<path d="M55.5 64.5L33.75 67.5L16.5 60L3 50.25L6 45L24 51" stroke="#343944" stroke-width="3"/>
<path d="M69 42H70.5V40.5H69V42ZM55.5 42V40.5H54V42H55.5ZM55.5 43.5H69V40.5H55.5V43.5ZM67.5 42V70.5H70.5V42H67.5ZM57 70.5V42H54V70.5H57Z" fill="#343944"/>
<path d="M46.5 42.75L47.0769 41.3654L46.4809 41.117L45.8908 41.3793L46.5 42.75ZM39.75 45.75L39.8993 47.2426L40.139 47.2186L40.3592 47.1207L39.75 45.75ZM24.75 47.25L24.6007 45.7574L23.5211 45.8654L23.2857 46.9246L24.75 47.25ZM23.25 54L21.7857 53.6746L23.3124 55.4987L23.25 54ZM56.0769 45.1154L47.0769 41.3654L45.9231 44.1346L54.9231 47.8846L56.0769 45.1154ZM45.8908 41.3793L39.1408 44.3793L40.3592 47.1207L47.1092 44.1207L45.8908 41.3793ZM39.6007 44.2574L24.6007 45.7574L24.8993 48.7426L39.8993 47.2426L39.6007 44.2574ZM23.2857 46.9246L21.7857 53.6746L24.7143 54.3254L26.2143 47.5754L23.2857 46.9246ZM23.3124 55.4987L41.3124 54.7487L41.1876 51.7513L23.1876 52.5013L23.3124 55.4987Z" fill="#343944"/>
<path d="M18 21V39" stroke="#02BAE8" stroke-width="3"/>
<path d="M43.5 7.5V31.5" stroke="#02BAE8" stroke-width="3"/>
<path d="M27 30L9 30" stroke="#02BAE8" stroke-width="3"/>
<path d="M55.5 19.5L31.5 19.5" stroke="#02BAE8" stroke-width="3"/>
</g>
<defs>
<clipPath id="clip0">
<rect width="72" height="72" fill="white"/>
</clipPath>
</defs>
</svg>
