<svg width="72" height="72" viewBox="0 0 72 72" fill="none" xmlns="http://www.w3.org/2000/svg">
<path d="M45.75 16.5L45.75 6" stroke="#343944" stroke-width="3"/>
<path d="M26.25 16.5L26.25 6" stroke="#343944" stroke-width="3"/>
<path d="M36 12L36 1.5" stroke="#343944" stroke-width="3"/>
<path d="M3 69.75L69 69.75" stroke="#343944" stroke-width="3" stroke-miterlimit="10"/>
<path d="M58.3611 69.75C63.1115 64.5751 66 57.7415 66 50.25C66 34.0957 52.5685 21 36 21C19.4315 21 6 34.0957 6 50.25C6 57.7415 8.88854 64.5751 13.6389 69.75" stroke="#343944" stroke-width="3"/>
<path d="M23.1562 52.2452L34.8476 58.9952" stroke="#02BAE8" stroke-width="3"/>
<path d="M24.7031 60.0664C24.7031 60.0664 28.0778 54.2213 30.3776 50.2379M30.3776 50.2379C33.5137 44.806 37.8728 37.2559 37.8728 37.2559C47.7652 41.25 50.9773 46.0582 47.7651 51.6219C44.5528 57.1857 39.4709 55.4879 35.8336 53.3879L30.3776 50.2379ZM30.3776 50.2379L25.831 47.6129" stroke="#02BAE8" stroke-width="3"/>
</svg>
