<svg width="72" height="72" viewBox="0 0 72 72" fill="none" xmlns="http://www.w3.org/2000/svg">
<g clip-path="url(#clip0)">
<path d="M37.5 12V10.5H36.5481L36.1428 11.3613L37.5 12ZM42 33L40.5333 32.6857L42.1358 34.4938L42 33ZM58.5 31.5L59.8024 30.7558L59.3241 29.9189L58.3642 30.0062L58.5 31.5ZM64.5 42L65.9667 42.3143L66.0868 41.7536L65.8024 41.2558L64.5 42ZM46.5 12L47.9667 12.3143L46.5 10.5V12ZM60 63L60.6286 64.3619L61.3096 64.0476L61.4667 63.3143L60 63ZM7.5 37.5V36H6V37.5H7.5ZM26.8572 38.1387L38.8572 12.6387L36.1428 11.3613L24.1428 36.8613L26.8572 38.1387ZM42.1358 34.4938L58.6358 32.9938L58.3642 30.0062L41.8642 31.5062L42.1358 34.4938ZM57.1976 32.2442L63.1976 42.7442L65.8024 41.2558L59.8024 30.7558L57.1976 32.2442ZM37.5 13.5H46.5V10.5H37.5V13.5ZM45.0333 11.6857L40.5333 32.6857L43.4667 33.3143L47.9667 12.3143L45.0333 11.6857ZM63.0333 41.6857L58.5333 62.6857L61.4667 63.3143L65.9667 42.3143L63.0333 41.6857ZM59.3714 61.6381L49.6214 66.1381L50.8786 68.8619L60.6286 64.3619L59.3714 61.6381ZM7.5 39H25.5V36H7.5V39ZM24 37.5V69H27V37.5H24ZM9 69V37.5H6V69H9Z" fill="#343944"/>
<path d="M16.5 59.25V65.25" stroke="#02BAE8" stroke-width="3"/>
</g>
<defs>
<clipPath id="clip0">
<rect width="72" height="72" fill="white"/>
</clipPath>
</defs>
</svg>
