<svg width="72" height="72" viewBox="0 0 72 72" fill="none" xmlns="http://www.w3.org/2000/svg">
<path d="M36 23.25V72" stroke="#02BAE8" stroke-width="3"/>
<path d="M12 39.75V72M60 39.75V72" stroke="#343944" stroke-width="3"/>
<path d="M37.1325 20.2501C47.6325 20.2501 56.0819 8.25 49.3319 4.50007C42.5819 0.750137 37.1325 12.0002 37.1325 20.2501Z" stroke="#02BAE8" stroke-width="3" stroke-linejoin="bevel"/>
<path d="M35.8924 20.6354L35.8924 22.1354L37.3188 20.1713L35.8924 20.6354ZM35.8923 19.1354C32.2531 19.1354 27.441 17.3925 24.2949 15.0297C22.7121 13.841 21.7556 12.6471 21.4418 11.6444C21.2948 11.1745 21.2922 10.7628 21.4095 10.3811C21.529 9.99233 21.8065 9.52668 22.3922 9.01424L20.4167 6.75649C19.5023 7.55653 18.8572 8.47368 18.5419 9.49991C18.2243 10.5333 18.2747 11.5689 18.5788 12.5404C19.1671 14.4205 20.7056 16.086 22.4933 17.4286C26.0883 20.1284 31.5201 22.1354 35.8924 22.1354L35.8923 19.1354ZM22.3922 9.01424C23.5545 7.9972 24.5574 7.85934 25.4837 8.10836C26.5277 8.38905 27.6936 9.22615 28.8991 10.6046C31.2977 13.3472 33.3398 17.638 34.466 21.0995L37.3188 20.1713C36.1245 16.5007 33.9226 11.7915 31.1574 8.62966C29.781 7.05589 28.1349 5.71461 26.2626 5.21124C24.2724 4.67619 22.2543 5.14857 20.4167 6.75649L22.3922 9.01424Z" fill="#02BAE8"/>
<path d="M64.5 23.25H7.5V39.75H32.25H64.5V23.25Z" stroke="#343944" stroke-width="3"/>
</svg>
