<svg width="72" height="72" viewBox="0 0 72 72" fill="none" xmlns="http://www.w3.org/2000/svg">
<path d="M51.1875 44.9974C47.5864 50.569 42.1515 54.2308 36.0705 54.2308C29.9099 54.2308 24.4111 50.6988 20.8125 44.9974" stroke="#02BAE8" stroke-width="3" stroke-miterlimit="10"/>
<path d="M66 39C66 49.1463 60.963 58.1162 53.2532 63.5455C48.3731 66.982 42.4222 69 36 69C29.5778 69 23.6269 66.982 18.7468 63.5455C11.037 58.1162 6 49.1463 6 39C6 22.4315 19.4315 9 36 9C52.5685 9 66 22.4315 66 39Z" stroke="#343944" stroke-width="3"/>
<rect x="23.5" y="28" width="4" height="4" fill="#343944"/>
<rect x="44.5" y="28" width="4" height="4" fill="#343944"/>
</svg>
